<svg xmlns="http://www.w3.org/2000/svg" viewBox="0 0 520.29 66.64">
  <title>Asset 10logo-icon</title>
  <g id="Layer_2" data-name="Layer 2">
    <g id="Layer_1-2" data-name="Layer 1">
      <g>
        <path d="M46,13.78H15.72v14.5H39.64V40.36H15.72V65.65H0V1H46Z" fill="#fff"/>
        <path d="M83,66.64q-13.06,0-20.21-9.8T55.65,33.11q0-14.16,7.24-23.64T83.52,0q13.53,0,20.42,10.11a40.17,40.17,0,0,1,6.89,23.14q0,14.07-7.1,23.73T83,66.64Zm.42-54.28q-11.91,0-11.91,20.94t11.91,21Q95,54.28,95,33.35T83.42,12.36Z" fill="#fff"/>
        <path d="M141.8,40V65.65H126.54V1H155q7.86,0,12.62,1.82a16.16,16.16,0,0,1,7.89,6.7,19.61,19.61,0,0,1,3.13,10.84q0,11.64-11.23,16.7l11.94,28.59H162.57L152.65,40Zm0-27.51V29h9.28a24.76,24.76,0,0,0,6.61-.64,7.39,7.39,0,0,0,3.67-2.84A8.36,8.36,0,0,0,163,20.46a7.82,7.82,0,0,0-1.61-4.83A6.68,6.68,0,0,0,157.85,13a33.32,33.32,0,0,0-7.1-.49Z" fill="#fff"/>
        <path d="M237.09,1V13.78h-16V65.65H205.73V13.78h-16.1V1Z" fill="#fff"/>
        <path d="M264.5,1V65.65H249.39V1Z" fill="#fff"/>
        <path d="M324.27,1V13.78h-16V65.65H292.92V13.78H276.81V1Z" fill="#fff"/>
        <path d="M387.54,1V41.25q0,9.77-2.22,14.52t-8.22,7.82q-6,3-15.32,3t-14.85-2.75a18.44,18.44,0,0,1-8.27-7.81q-2.75-5.07-2.74-14.83V1h16.43V41.25a24.46,24.46,0,0,0,.88,7.68,7.2,7.2,0,0,0,3.5,3.91,13.31,13.31,0,0,0,6.47,1.44,14.76,14.76,0,0,0,6.94-1.42,7.15,7.15,0,0,0,3.55-3.77,24.84,24.84,0,0,0,.87-7.84V1Z" fill="#fff"/>
        <path d="M405.39,1h19.73q12.08,0,18,3.33a31.38,31.38,0,0,1,10.6,10.57q4.68,7.22,4.68,18.26,0,13.88-8.18,23.18t-22.58,9.31H405.39Zm14.87,11.88V53.47h6.24q8.28,0,12.29-6.18a26,26,0,0,0,4-14.51,25.86,25.86,0,0,0-2.29-10.87q-2.29-5-5.7-7a15.69,15.69,0,0,0-8.17-2Z" fill="#fff"/>
        <path d="M520.29,13.31H489.5V26.57h24.21V38.74H489.5V52.86h30.79V65.65H474.11V1h46.18Z" fill="#fff"/>
      </g>
    </g>
  </g>
</svg>
