<svg xmlns="http://www.w3.org/2000/svg" viewBox="0 0 335 418.48"><title>Asset 6icon</title><g id="Layer_2" data-name="Layer 2"><g id="art"><path d="M0,0V314.62L167.5,418.48,335,314.62V0ZM328.5,311l-161,99.83L6.5,311V6.5h322Z" fill="#fff"/><path d="M154,177.05V204h13.46V163.58A13.48,13.48,0,0,0,154,177.05Z" fill="#fff"/><path d="M13.09,13.89V307.08L167.5,402.82l154.41-95.74V13.89ZM296.93,293.18,167.5,373.43h0V298.7H91.74a5,5,0,0,1-5-5.05v-10.1a5,5,0,0,1,5-5.05h75.75V257.86h-60.6c12.38-42.06,13.88-79.58,14-98.05L101.77,142a5,5,0,0,1-1.61-3.69V87.83a5,5,0,0,1,5-5H122a5.06,5.06,0,0,1,5.06,5v18.52h20.2V87.83a5,5,0,0,1,5-5h15.14V38.87H296.93Z" fill="#fff"/><path d="M248.31,293.65v-10.1a5.06,5.06,0,0,0-5.05-5.05H167.49v20.2h75.77A5.06,5.06,0,0,0,248.31,293.65Z" fill="#fff"/><path d="M214.12,159.81,233.23,142a5.07,5.07,0,0,0,1.61-3.69V87.83a5.06,5.06,0,0,0-5.05-5H213a5,5,0,0,0-5,5v18.52H187.7V87.83a5,5,0,0,0-5-5H167.49v80.8h0A13.48,13.48,0,0,1,181,177.05V204H167.49v53.87H228.1C215.72,215.94,214.23,178.35,214.12,159.81Z" fill="#fff"/></g></g></svg>