<svg xmlns="http://www.w3.org/2000/svg" viewBox="0 0 230.87 31.22">
  <title>Asset 11logo-icon</title>
  <g id="Layer_2" data-name="Layer 2">
    <g id="Layer_1-2" data-name="Layer 1">
      <g>
        <path d="M13.36.62V21.46c0,3.64-.82,6.17-2.46,7.61a9.59,9.59,0,0,1-6.53,2.15A16.11,16.11,0,0,1,0,30.61V27.53A18.69,18.69,0,0,0,3.91,28a7.07,7.07,0,0,0,3.69-.75,3.69,3.69,0,0,0,1.6-1.93,13.12,13.12,0,0,0,.4-3.85V.62Z" fill="#fff"/>
        <path d="M32.42,30.61H28.67V.62h3.75Z" fill="#fff"/>
        <path d="M65.11.62h3.12V20.2q0,5.9-2.89,8.46a11,11,0,0,1-7.57,2.56q-5.21,0-7.71-2.64t-2.5-8.38V.62h3.75V20.21a10.54,10.54,0,0,0,.82,4.92,4.8,4.8,0,0,0,2.46,2.11,8.78,8.78,0,0,0,3.45.69,7.08,7.08,0,0,0,5.27-1.83q1.8-1.83,1.8-5.89Z" fill="#fff"/>
        <path d="M90.22,18V20.7H80.29V18Z" fill="#fff"/>
        <path d="M112.34.62V21.46c0,3.64-.82,6.17-2.46,7.61a9.59,9.59,0,0,1-6.53,2.15A16.11,16.11,0,0,1,99,30.61V27.53a18.61,18.61,0,0,0,3.91.46,7.07,7.07,0,0,0,3.69-.75,3.63,3.63,0,0,0,1.59-1.93,13,13,0,0,0,.41-3.85V.62Z" fill="#fff"/>
        <path d="M131.4,30.61h-3.76V.62h3.76Z" fill="#fff"/>
        <path d="M156.05,30.61h-3.76V3.91H143.7V.62h21V3.91h-8.61Z" fill="#fff"/>
        <path d="M173.64,22.68l3.38-.77q2,6.12,8.86,6.13a8.22,8.22,0,0,0,5.36-1.51,5,5,0,0,0,1.8-4.05,3.87,3.87,0,0,0-1.37-3.09,7.7,7.7,0,0,0-3.17-1.61l-6-1.48a15.06,15.06,0,0,1-3.81-1.44,6.84,6.84,0,0,1-2.51-2.6,7.83,7.83,0,0,1-1-4,7.25,7.25,0,0,1,2.84-6A11.38,11.38,0,0,1,185.24,0Q193.42,0,196,7.4l-3.41,1a6.06,6.06,0,0,0-2.79-4,8.82,8.82,0,0,0-4.68-1.35,7.6,7.6,0,0,0-4.38,1.3,4.17,4.17,0,0,0-1.93,3.68q0,3.34,4.88,4.51l5.6,1.31Q197,15.72,197,22.17a8.3,8.3,0,0,1-2.89,6.47c-1.92,1.72-4.64,2.58-8.14,2.58Q176.63,31.22,173.64,22.68Z" fill="#fff"/>
        <path d="M227.75.62h3.12V20.2q0,5.9-2.89,8.46a11,11,0,0,1-7.57,2.56q-5.21,0-7.71-2.64t-2.51-8.38V.62H214V20.21a10.7,10.7,0,0,0,.81,4.92,4.88,4.88,0,0,0,2.46,2.11,8.85,8.85,0,0,0,3.45.69A7.09,7.09,0,0,0,226,26.1q1.8-1.83,1.8-5.89Z" fill="#fff"/>
      </g>
    </g>
  </g>
</svg>
